<?xml version="1.0" encoding="UTF-8"?>
<svg xmlns="http://www.w3.org/2000/svg" version="1.1" width="100" height="100" viewBox="0 0 100 100"><rect x="0" y="0" width="100" height="100" fill="#ffffff"/><g transform="scale(2.703)"><g transform="translate(0,0)"><path fill-rule="evenodd" d="M9 0L9 1L8 1L8 2L9 2L9 3L8 3L8 4L10 4L10 7L11 7L11 4L12 4L12 5L13 5L13 4L16 4L16 5L14 5L14 8L13 8L13 6L12 6L12 9L13 9L13 10L11 10L11 11L10 11L10 10L9 10L9 9L11 9L11 8L6 8L6 9L8 9L8 10L9 10L9 11L7 11L7 10L6 10L6 11L7 11L7 12L5 12L5 10L4 10L4 9L5 9L5 8L0 8L0 9L2 9L2 11L3 11L3 10L4 10L4 12L3 12L3 13L2 13L2 12L1 12L1 13L0 13L0 15L1 15L1 13L2 13L2 14L3 14L3 15L2 15L2 18L3 18L3 19L7 19L7 18L6 18L6 17L8 17L8 16L11 16L11 15L10 15L10 14L11 14L11 13L12 13L12 14L14 14L14 16L13 16L13 15L12 15L12 17L14 17L14 20L13 20L13 21L12 21L12 19L13 19L13 18L11 18L11 17L9 17L9 18L8 18L8 19L9 19L9 18L11 18L11 20L10 20L10 21L8 21L8 20L6 20L6 21L5 21L5 22L6 22L6 23L4 23L4 20L2 20L2 21L1 21L1 18L0 18L0 21L1 21L1 22L0 22L0 29L1 29L1 23L2 23L2 22L3 22L3 23L4 23L4 25L3 25L3 24L2 24L2 25L3 25L3 26L6 26L6 27L5 27L5 28L4 28L4 27L2 27L2 28L4 28L4 29L5 29L5 28L6 28L6 29L7 29L7 28L6 28L6 27L8 27L8 26L9 26L9 28L8 28L8 31L9 31L9 32L8 32L8 37L10 37L10 36L9 36L9 35L10 35L10 34L11 34L11 37L12 37L12 35L13 35L13 34L11 34L11 32L10 32L10 27L11 27L11 29L12 29L12 30L13 30L13 31L12 31L12 33L13 33L13 32L14 32L14 33L15 33L15 32L17 32L17 34L15 34L15 35L14 35L14 36L15 36L15 37L16 37L16 36L17 36L17 37L18 37L18 36L17 36L17 34L20 34L20 35L21 35L21 36L22 36L22 37L23 37L23 34L24 34L24 36L25 36L25 37L26 37L26 36L25 36L25 35L26 35L26 34L27 34L27 33L29 33L29 34L28 34L28 35L27 35L27 36L29 36L29 37L30 37L30 35L29 35L29 34L31 34L31 36L32 36L32 37L37 37L37 33L36 33L36 32L37 32L37 30L35 30L35 32L33 32L33 30L34 30L34 29L35 29L35 28L33 28L33 27L34 27L34 26L32 26L32 25L33 25L33 24L32 24L32 23L33 23L33 22L34 22L34 23L36 23L36 24L34 24L34 25L35 25L35 27L36 27L36 28L37 28L37 26L36 26L36 25L37 25L37 22L36 22L36 21L37 21L37 18L36 18L36 17L37 17L37 14L36 14L36 13L37 13L37 12L36 12L36 11L37 11L37 10L36 10L36 8L35 8L35 9L34 9L34 8L33 8L33 10L32 10L32 8L31 8L31 10L32 10L32 11L30 11L30 10L29 10L29 9L30 9L30 8L29 8L29 6L28 6L28 5L29 5L29 4L28 4L28 5L26 5L26 4L27 4L27 3L28 3L28 2L29 2L29 0L28 0L28 1L26 1L26 0L25 0L25 1L24 1L24 0L23 0L23 1L22 1L22 2L21 2L21 0L16 0L16 1L15 1L15 0L14 0L14 1L11 1L11 2L10 2L10 0ZM18 1L18 2L16 2L16 4L17 4L17 5L16 5L16 6L15 6L15 8L18 8L18 9L19 9L19 8L20 8L20 9L22 9L22 8L21 8L21 7L22 7L22 6L21 6L21 5L23 5L23 8L27 8L27 7L28 7L28 6L27 6L27 7L26 7L26 6L25 6L25 3L26 3L26 2L24 2L24 1L23 1L23 3L20 3L20 1ZM12 2L12 4L13 4L13 3L15 3L15 2ZM10 3L10 4L11 4L11 3ZM17 3L17 4L18 4L18 3ZM19 3L19 5L20 5L20 3ZM23 4L23 5L24 5L24 4ZM8 5L8 7L9 7L9 5ZM16 6L16 7L17 7L17 6ZM18 6L18 8L19 8L19 6ZM20 6L20 7L21 7L21 6ZM24 6L24 7L25 7L25 6ZM14 9L14 10L13 10L13 11L12 11L12 13L13 13L13 12L14 12L14 14L16 14L16 15L17 15L17 16L14 16L14 17L15 17L15 18L16 18L16 17L17 17L17 18L19 18L19 19L20 19L20 18L19 18L19 16L20 16L20 17L22 17L22 16L21 16L21 15L20 15L20 14L18 14L18 13L20 13L20 11L24 11L24 12L23 12L23 13L22 13L22 12L21 12L21 13L22 13L22 15L24 15L24 16L26 16L26 17L24 17L24 18L23 18L23 19L22 19L22 18L21 18L21 19L22 19L22 20L21 20L21 21L22 21L22 22L23 22L23 23L24 23L24 24L26 24L26 25L25 25L25 26L23 26L23 24L20 24L20 22L17 22L17 20L18 20L18 19L17 19L17 20L14 20L14 22L12 22L12 21L11 21L11 24L10 24L10 23L9 23L9 22L8 22L8 21L6 21L6 22L7 22L7 23L6 23L6 24L5 24L5 25L6 25L6 26L8 26L8 23L9 23L9 24L10 24L10 26L13 26L13 27L12 27L12 29L14 29L14 30L16 30L16 29L17 29L17 32L18 32L18 33L21 33L21 34L23 34L23 33L25 33L25 34L26 34L26 33L27 33L27 32L26 32L26 31L28 31L28 30L26 30L26 29L28 29L28 27L27 27L27 26L28 26L28 25L27 25L27 22L28 22L28 21L27 21L27 20L26 20L26 17L27 17L27 18L28 18L28 17L29 17L29 16L28 16L28 17L27 17L27 16L26 16L26 15L25 15L25 12L26 12L26 14L28 14L28 13L27 13L27 12L30 12L30 11L27 11L27 10L28 10L28 9L27 9L27 10L26 10L26 9L25 9L25 10L19 10L19 12L18 12L18 10L17 10L17 11L16 11L16 13L15 13L15 11L14 11L14 10L16 10L16 9ZM25 10L25 11L26 11L26 12L27 12L27 11L26 11L26 10ZM35 10L35 11L34 11L34 12L35 12L35 13L36 13L36 12L35 12L35 11L36 11L36 10ZM32 11L32 12L31 12L31 13L29 13L29 14L30 14L30 16L33 16L33 15L34 15L34 16L35 16L35 17L36 17L36 15L34 15L34 13L32 13L32 12L33 12L33 11ZM4 12L4 13L3 13L3 14L4 14L4 16L5 16L5 17L6 17L6 16L8 16L8 15L9 15L9 14L10 14L10 13L11 13L11 12L8 12L8 14L7 14L7 13L5 13L5 12ZM17 12L17 13L16 13L16 14L17 14L17 13L18 13L18 12ZM4 13L4 14L5 14L5 13ZM23 13L23 14L24 14L24 13ZM31 13L31 14L32 14L32 15L33 15L33 14L32 14L32 13ZM6 14L6 15L5 15L5 16L6 16L6 15L7 15L7 14ZM17 16L17 17L18 17L18 16ZM30 17L30 18L31 18L31 17ZM32 17L32 20L31 20L31 19L30 19L30 20L29 20L29 22L30 22L30 23L28 23L28 24L31 24L31 23L32 23L32 22L33 22L33 21L34 21L34 22L35 22L35 21L34 21L34 20L36 20L36 19L34 19L34 17ZM24 18L24 20L22 20L22 21L23 21L23 22L24 22L24 21L26 21L26 22L25 22L25 23L26 23L26 22L27 22L27 21L26 21L26 20L25 20L25 18ZM19 20L19 21L20 21L20 20ZM30 20L30 21L31 21L31 22L32 22L32 21L33 21L33 20L32 20L32 21L31 21L31 20ZM14 22L14 24L13 24L13 23L12 23L12 25L14 25L14 27L15 27L15 28L16 28L16 27L18 27L18 28L17 28L17 29L18 29L18 31L19 31L19 32L22 32L22 33L23 33L23 32L25 32L25 33L26 33L26 32L25 32L25 31L22 31L22 30L21 30L21 29L18 29L18 28L19 28L19 27L18 27L18 26L20 26L20 28L22 28L22 29L23 29L23 30L25 30L25 29L26 29L26 28L27 28L27 27L26 27L26 26L27 26L27 25L26 25L26 26L25 26L25 27L26 27L26 28L25 28L25 29L23 29L23 26L20 26L20 24L19 24L19 25L18 25L18 24L17 24L17 23L16 23L16 22ZM15 23L15 24L14 24L14 25L15 25L15 26L16 26L16 25L17 25L17 24L16 24L16 23ZM6 24L6 25L7 25L7 24ZM29 25L29 27L30 27L30 28L31 28L31 27L30 27L30 26L31 26L31 25ZM29 29L29 32L32 32L32 29ZM19 30L19 31L20 31L20 30ZM30 30L30 31L31 31L31 30ZM14 31L14 32L15 32L15 31ZM31 33L31 34L32 34L32 35L33 35L33 36L36 36L36 35L34 35L34 34L35 34L35 33L34 33L34 34L32 34L32 33ZM0 0L0 7L7 7L7 0ZM1 1L1 6L6 6L6 1ZM2 2L2 5L5 5L5 2ZM30 0L30 7L37 7L37 0ZM31 1L31 6L36 6L36 1ZM32 2L32 5L35 5L35 2ZM0 30L0 37L7 37L7 30ZM1 31L1 36L6 36L6 31ZM2 32L2 35L5 35L5 32Z" fill="#000000"/></g></g></svg>
