<?xml version="1.0" encoding="UTF-8"?>
<svg xmlns="http://www.w3.org/2000/svg" version="1.1" width="500" height="500" viewBox="0 0 500 500"><rect x="0" y="0" width="500" height="500" fill="#ffffff"/><g transform="scale(20)"><g transform="translate(0,0)"><path fill-rule="evenodd" d="M8 0L8 4L9 4L9 5L8 5L8 7L9 7L9 6L10 6L10 9L11 9L11 10L8 10L8 9L7 9L7 8L4 8L4 9L3 9L3 10L2 10L2 8L0 8L0 14L1 14L1 13L2 13L2 12L1 12L1 11L4 11L4 12L3 12L3 14L2 14L2 16L0 16L0 17L3 17L3 16L4 16L4 17L8 17L8 18L9 18L9 19L8 19L8 21L9 21L9 22L10 22L10 23L8 23L8 25L10 25L10 23L12 23L12 24L11 24L11 25L13 25L13 22L14 22L14 21L15 21L15 20L16 20L16 22L17 22L17 21L18 21L18 23L17 23L17 24L18 24L18 25L19 25L19 24L22 24L22 25L25 25L25 24L24 24L24 22L25 22L25 21L24 21L24 19L22 19L22 18L23 18L23 16L24 16L24 15L23 15L23 14L24 14L24 13L25 13L25 12L24 12L24 11L23 11L23 10L24 10L24 9L25 9L25 8L21 8L21 9L20 9L20 8L19 8L19 10L20 10L20 11L22 11L22 12L21 12L21 13L19 13L19 11L18 11L18 13L19 13L19 14L18 14L18 15L17 15L17 14L16 14L16 12L14 12L14 13L13 13L13 10L14 10L14 9L15 9L15 11L17 11L17 10L18 10L18 9L17 9L17 5L16 5L16 4L15 4L15 5L14 5L14 3L13 3L13 2L15 2L15 1L16 1L16 0L15 0L15 1L11 1L11 2L12 2L12 3L13 3L13 4L12 4L12 5L13 5L13 6L12 6L12 7L11 7L11 3L10 3L10 2L9 2L9 0ZM16 2L16 3L17 3L17 2ZM15 5L15 7L14 7L14 6L13 6L13 7L12 7L12 8L11 8L11 9L12 9L12 10L13 10L13 9L14 9L14 8L15 8L15 9L16 9L16 10L17 10L17 9L16 9L16 8L15 8L15 7L16 7L16 5ZM12 8L12 9L13 9L13 8ZM4 9L4 10L7 10L7 9ZM22 9L22 10L23 10L23 9ZM5 11L5 12L7 12L7 13L6 13L6 14L8 14L8 12L9 12L9 15L8 15L8 17L9 17L9 16L10 16L10 17L11 17L11 15L10 15L10 13L11 13L11 14L13 14L13 15L12 15L12 18L14 18L14 16L15 16L15 17L16 17L16 16L15 16L15 13L14 13L14 14L13 14L13 13L11 13L11 12L12 12L12 11L10 11L10 12L9 12L9 11ZM4 13L4 14L3 14L3 15L4 15L4 16L7 16L7 15L4 15L4 14L5 14L5 13ZM21 13L21 14L20 14L20 15L19 15L19 16L21 16L21 14L23 14L23 13ZM17 17L17 20L20 20L20 17ZM21 17L21 18L22 18L22 17ZM15 18L15 19L16 19L16 18ZM18 18L18 19L19 19L19 18ZM9 19L9 21L10 21L10 22L11 22L11 21L14 21L14 19L13 19L13 20L12 20L12 19L11 19L11 21L10 21L10 19ZM21 20L21 21L19 21L19 23L18 23L18 24L19 24L19 23L23 23L23 22L21 22L21 21L22 21L22 20ZM15 23L15 24L16 24L16 23ZM0 0L0 7L7 7L7 0ZM1 1L1 6L6 6L6 1ZM2 2L2 5L5 5L5 2ZM18 0L18 7L25 7L25 0ZM19 1L19 6L24 6L24 1ZM20 2L20 5L23 5L23 2ZM0 18L0 25L7 25L7 18ZM1 19L1 24L6 24L6 19ZM2 20L2 23L5 23L5 20Z" fill="#000000"/></g></g></svg>
