<?xml version="1.0" encoding="UTF-8"?>
<svg xmlns="http://www.w3.org/2000/svg" version="1.1" width="500" height="500" viewBox="0 0 500 500"><rect x="0" y="0" width="500" height="500" fill="#ffffff"/><g transform="scale(12.195)"><g transform="translate(0,0)"><path fill-rule="evenodd" d="M8 0L8 4L9 4L9 2L10 2L10 3L11 3L11 4L10 4L10 7L9 7L9 5L8 5L8 7L9 7L9 9L10 9L10 10L8 10L8 9L7 9L7 8L4 8L4 9L5 9L5 10L4 10L4 12L3 12L3 10L2 10L2 8L0 8L0 10L2 10L2 12L1 12L1 11L0 11L0 13L2 13L2 14L3 14L3 15L4 15L4 18L5 18L5 19L3 19L3 21L1 21L1 20L2 20L2 19L1 19L1 18L0 18L0 22L1 22L1 23L5 23L5 22L6 22L6 23L7 23L7 22L6 22L6 21L8 21L8 22L9 22L9 20L10 20L10 19L8 19L8 20L5 20L5 19L7 19L7 18L8 18L8 17L7 17L7 16L8 16L8 15L9 15L9 18L10 18L10 17L11 17L11 21L10 21L10 23L8 23L8 25L7 25L7 24L6 24L6 25L5 25L5 28L6 28L6 29L5 29L5 31L3 31L3 30L4 30L4 28L3 28L3 27L4 27L4 24L3 24L3 26L0 26L0 28L1 28L1 29L0 29L0 30L2 30L2 32L0 32L0 33L2 33L2 32L5 32L5 31L7 31L7 32L6 32L6 33L7 33L7 32L9 32L9 33L8 33L8 34L9 34L9 33L11 33L11 34L10 34L10 36L9 36L9 35L8 35L8 37L9 37L9 38L10 38L10 39L8 39L8 41L11 41L11 40L12 40L12 41L13 41L13 40L12 40L12 39L14 39L14 40L17 40L17 41L18 41L18 39L19 39L19 41L23 41L23 40L25 40L25 39L24 39L24 38L26 38L26 37L27 37L27 39L26 39L26 40L27 40L27 41L28 41L28 39L29 39L29 41L30 41L30 40L32 40L32 41L33 41L33 39L34 39L34 41L36 41L36 40L38 40L38 38L40 38L40 39L39 39L39 41L40 41L40 40L41 40L41 37L38 37L38 36L37 36L37 34L38 34L38 35L39 35L39 36L40 36L40 35L41 35L41 33L40 33L40 35L39 35L39 34L38 34L38 31L39 31L39 29L40 29L40 32L41 32L41 28L39 28L39 29L36 29L36 30L35 30L35 29L34 29L34 28L35 28L35 27L34 27L34 28L33 28L33 26L36 26L36 28L37 28L37 27L39 27L39 25L36 25L36 24L38 24L38 23L36 23L36 24L35 24L35 25L34 25L34 23L33 23L33 19L34 19L34 20L35 20L35 21L34 21L34 22L35 22L35 21L36 21L36 22L37 22L37 21L36 21L36 20L35 20L35 19L34 19L34 18L36 18L36 19L37 19L37 20L38 20L38 19L37 19L37 18L40 18L40 19L41 19L41 17L40 17L40 16L41 16L41 13L36 13L36 14L35 14L35 13L34 13L34 12L35 12L35 11L34 11L34 12L32 12L32 13L33 13L33 14L32 14L32 15L31 15L31 14L30 14L30 12L31 12L31 11L30 11L30 10L31 10L31 9L30 9L30 8L31 8L31 6L32 6L32 11L33 11L33 10L36 10L36 11L37 11L37 12L38 12L38 11L37 11L37 9L38 9L38 10L40 10L40 11L39 11L39 12L41 12L41 8L37 8L37 9L36 9L36 8L35 8L35 9L33 9L33 5L31 5L31 4L32 4L32 3L33 3L33 1L31 1L31 0L30 0L30 1L31 1L31 2L29 2L29 1L28 1L28 0L23 0L23 1L19 1L19 0L14 0L14 1L16 1L16 3L14 3L14 2L13 2L13 3L14 3L14 5L13 5L13 4L12 4L12 3L11 3L11 1L13 1L13 0L10 0L10 1L9 1L9 0ZM18 1L18 2L17 2L17 3L16 3L16 4L15 4L15 7L16 7L16 5L17 5L17 3L19 3L19 4L20 4L20 3L21 3L21 4L22 4L22 5L20 5L20 6L19 6L19 5L18 5L18 6L17 6L17 7L18 7L18 6L19 6L19 8L20 8L20 9L19 9L19 10L18 10L18 9L17 9L17 8L14 8L14 6L13 6L13 5L12 5L12 4L11 4L11 5L12 5L12 6L11 6L11 7L10 7L10 9L17 9L17 10L16 10L16 11L17 11L17 10L18 10L18 11L19 11L19 12L20 12L20 10L21 10L21 11L22 11L22 12L23 12L23 11L22 11L22 10L23 10L23 9L29 9L29 10L28 10L28 11L27 11L27 13L28 13L28 11L29 11L29 10L30 10L30 9L29 9L29 7L30 7L30 6L29 6L29 7L28 7L28 5L26 5L26 4L25 4L25 8L24 8L24 5L23 5L23 4L22 4L22 3L21 3L21 2L20 2L20 3L19 3L19 1ZM23 1L23 3L24 3L24 1ZM25 1L25 3L27 3L27 2L28 2L28 4L29 4L29 5L30 5L30 3L29 3L29 2L28 2L28 1L27 1L27 2L26 2L26 1ZM22 5L22 7L21 7L21 6L20 6L20 7L21 7L21 9L23 9L23 8L22 8L22 7L23 7L23 5ZM12 6L12 7L11 7L11 8L12 8L12 7L13 7L13 6ZM26 6L26 8L28 8L28 7L27 7L27 6ZM6 9L6 10L5 10L5 12L4 12L4 13L3 13L3 14L5 14L5 16L7 16L7 15L6 15L6 14L7 14L7 13L9 13L9 12L11 12L11 13L10 13L10 16L12 16L12 15L13 15L13 17L12 17L12 18L14 18L14 17L15 17L15 16L16 16L16 17L17 17L17 15L16 15L16 13L18 13L18 14L19 14L19 13L18 13L18 12L15 12L15 13L12 13L12 12L14 12L14 11L15 11L15 10L12 10L12 12L11 12L11 10L10 10L10 11L9 11L9 12L7 12L7 11L6 11L6 10L7 10L7 9ZM25 10L25 12L24 12L24 13L25 13L25 14L24 14L24 15L23 15L23 14L22 14L22 13L20 13L20 15L21 15L21 14L22 14L22 15L23 15L23 17L20 17L20 16L18 16L18 17L19 17L19 19L18 19L18 18L17 18L17 21L16 21L16 19L14 19L14 21L13 21L13 20L12 20L12 21L11 21L11 22L12 22L12 21L13 21L13 22L14 22L14 21L15 21L15 22L16 22L16 23L17 23L17 21L19 21L19 19L20 19L20 20L21 20L21 19L22 19L22 20L23 20L23 19L22 19L22 18L23 18L23 17L24 17L24 15L25 15L25 18L24 18L24 19L25 19L25 20L24 20L24 21L26 21L26 22L24 22L24 24L23 24L23 21L21 21L21 22L18 22L18 23L19 23L19 24L18 24L18 25L17 25L17 26L16 26L16 27L15 27L15 26L12 26L12 27L11 27L11 26L10 26L10 24L9 24L9 26L10 26L10 27L8 27L8 26L7 26L7 25L6 25L6 26L7 26L7 27L6 27L6 28L7 28L7 27L8 27L8 30L9 30L9 31L10 31L10 32L12 32L12 31L13 31L13 33L12 33L12 34L14 34L14 33L15 33L15 32L16 32L16 33L17 33L17 31L18 31L18 34L16 34L16 36L15 36L15 35L14 35L14 37L15 37L15 38L14 38L14 39L15 39L15 38L16 38L16 39L17 39L17 38L18 38L18 37L19 37L19 39L20 39L20 40L21 40L21 38L22 38L22 39L23 39L23 38L22 38L22 37L19 37L19 36L20 36L20 33L19 33L19 31L20 31L20 32L21 32L21 31L22 31L22 32L23 32L23 31L22 31L22 30L23 30L23 29L26 29L26 31L24 31L24 32L25 32L25 33L24 33L24 35L22 35L22 36L23 36L23 37L26 37L26 36L28 36L28 37L29 37L29 39L31 39L31 38L30 38L30 37L31 37L31 36L30 36L30 37L29 37L29 35L30 35L30 34L28 34L28 35L25 35L25 33L28 33L28 32L29 32L29 31L30 31L30 30L28 30L28 32L27 32L27 29L29 29L29 27L30 27L30 28L32 28L32 26L33 26L33 25L31 25L31 27L30 27L30 26L28 26L28 28L27 28L27 29L26 29L26 27L27 27L27 25L28 25L28 23L29 23L29 22L28 22L28 23L27 23L27 21L28 21L28 19L27 19L27 21L26 21L26 19L25 19L25 18L26 18L26 17L28 17L28 16L29 16L29 15L30 15L30 14L29 14L29 15L28 15L28 16L27 16L27 15L26 15L26 10ZM5 12L5 13L7 13L7 12ZM13 14L13 15L14 15L14 16L15 16L15 14ZM33 14L33 16L30 16L30 17L29 17L29 19L30 19L30 21L31 21L31 24L32 24L32 18L34 18L34 17L35 17L35 16L36 16L36 17L39 17L39 15L40 15L40 14L39 14L39 15L38 15L38 16L37 16L37 14L36 14L36 15L34 15L34 14ZM1 15L1 16L0 16L0 17L2 17L2 18L3 18L3 16L2 16L2 15ZM5 17L5 18L7 18L7 17ZM30 17L30 18L31 18L31 17ZM20 18L20 19L21 19L21 18ZM39 20L39 21L38 21L38 22L40 22L40 23L39 23L39 24L40 24L40 27L41 27L41 20ZM3 21L3 22L5 22L5 21ZM21 22L21 24L20 24L20 25L22 25L22 26L20 26L20 29L23 29L23 28L25 28L25 26L26 26L26 25L25 25L25 24L24 24L24 25L23 25L23 24L22 24L22 22ZM12 23L12 24L11 24L11 25L12 25L12 24L13 24L13 25L14 25L14 24L15 24L15 25L16 25L16 24L15 24L15 23ZM26 23L26 24L27 24L27 23ZM1 24L1 25L2 25L2 24ZM18 25L18 26L17 26L17 28L18 28L18 29L16 29L16 31L17 31L17 30L18 30L18 31L19 31L19 30L18 30L18 29L19 29L19 27L18 27L18 26L19 26L19 25ZM24 25L24 26L25 26L25 25ZM22 26L22 28L23 28L23 26ZM1 27L1 28L2 28L2 27ZM12 27L12 28L11 28L11 29L15 29L15 27L14 27L14 28L13 28L13 27ZM9 28L9 29L10 29L10 28ZM2 29L2 30L3 30L3 29ZM6 29L6 30L7 30L7 29ZM31 29L31 32L30 32L30 33L31 33L31 32L32 32L32 30L33 30L33 32L34 32L34 30L33 30L33 29ZM14 30L14 32L15 32L15 30ZM20 30L20 31L21 31L21 30ZM36 30L36 32L37 32L37 31L38 31L38 30ZM21 33L21 34L23 34L23 33ZM33 33L33 36L36 36L36 33ZM18 34L18 35L19 35L19 34ZM34 34L34 35L35 35L35 34ZM11 35L11 36L10 36L10 37L11 37L11 38L12 38L12 37L13 37L13 36L12 36L12 35ZM24 35L24 36L25 36L25 35ZM11 36L11 37L12 37L12 36ZM16 36L16 37L17 37L17 36ZM34 37L34 39L35 39L35 40L36 40L36 39L37 39L37 37ZM32 38L32 39L33 39L33 38ZM35 38L35 39L36 39L36 38ZM10 39L10 40L11 40L11 39ZM0 0L0 7L7 7L7 0ZM1 1L1 6L6 6L6 1ZM2 2L2 5L5 5L5 2ZM34 0L34 7L41 7L41 0ZM35 1L35 6L40 6L40 1ZM36 2L36 5L39 5L39 2ZM0 34L0 41L7 41L7 34ZM1 35L1 40L6 40L6 35ZM2 36L2 39L5 39L5 36Z" fill="#000000"/></g></g></svg>
