<?xml version="1.0" encoding="UTF-8"?>
<svg xmlns="http://www.w3.org/2000/svg" version="1.1" width="100" height="100" viewBox="0 0 100 100"><rect x="0" y="0" width="100" height="100" fill="#ffffff"/><g transform="scale(4)"><g transform="translate(0,0)"><path fill-rule="evenodd" d="M9 0L9 1L11 1L11 2L9 2L9 3L8 3L8 5L9 5L9 6L8 6L8 7L9 7L9 9L10 9L10 10L8 10L8 8L5 8L5 9L4 9L4 10L3 10L3 9L2 9L2 8L0 8L0 11L1 11L1 12L0 12L0 17L1 17L1 13L2 13L2 17L5 17L5 16L6 16L6 17L8 17L8 20L9 20L9 18L11 18L11 20L10 20L10 22L11 22L11 20L12 20L12 21L13 21L13 22L12 22L12 23L11 23L11 25L14 25L14 24L13 24L13 23L14 23L14 21L18 21L18 22L16 22L16 24L15 24L15 25L19 25L19 24L21 24L21 25L22 25L22 24L21 24L21 23L18 23L18 22L20 22L20 21L21 21L21 22L22 22L22 23L23 23L23 22L24 22L24 25L25 25L25 21L24 21L24 20L25 20L25 18L24 18L24 20L21 20L21 19L22 19L22 18L23 18L23 15L24 15L24 16L25 16L25 14L24 14L24 13L25 13L25 10L24 10L24 9L22 9L22 8L20 8L20 11L21 11L21 12L22 12L22 10L23 10L23 11L24 11L24 13L23 13L23 15L22 15L22 14L21 14L21 15L20 15L20 14L19 14L19 15L20 15L20 16L17 16L17 15L18 15L18 14L17 14L17 15L16 15L16 13L19 13L19 12L18 12L18 11L19 11L19 10L18 10L18 9L17 9L17 8L15 8L15 12L14 12L14 14L15 14L15 15L14 15L14 16L13 16L13 14L12 14L12 16L11 16L11 17L10 17L10 15L11 15L11 13L13 13L13 11L12 11L12 12L11 12L11 11L10 11L10 10L11 10L11 8L13 8L13 9L14 9L14 8L13 8L13 6L12 6L12 7L11 7L11 4L12 4L12 5L13 5L13 4L14 4L14 5L15 5L15 4L16 4L16 3L12 3L12 2L13 2L13 1L12 1L12 0ZM16 0L16 1L17 1L17 0ZM9 3L9 5L10 5L10 3ZM16 5L16 7L17 7L17 5ZM9 6L9 7L10 7L10 8L11 8L11 7L10 7L10 6ZM14 6L14 7L15 7L15 6ZM5 9L5 10L4 10L4 11L3 11L3 10L2 10L2 12L4 12L4 13L3 13L3 16L4 16L4 14L5 14L5 13L6 13L6 14L7 14L7 13L8 13L8 15L6 15L6 16L8 16L8 17L9 17L9 16L8 16L8 15L10 15L10 14L9 14L9 12L10 12L10 11L9 11L9 12L8 12L8 11L6 11L6 12L4 12L4 11L5 11L5 10L7 10L7 9ZM16 10L16 11L17 11L17 10ZM6 12L6 13L7 13L7 12ZM15 12L15 13L16 13L16 12ZM15 15L15 16L14 16L14 18L13 18L13 17L12 17L12 18L13 18L13 19L12 19L12 20L13 20L13 21L14 21L14 19L15 19L15 20L16 20L16 18L15 18L15 16L16 16L16 15ZM21 15L21 18L22 18L22 15ZM17 17L17 20L20 20L20 17ZM18 18L18 19L19 19L19 18ZM22 21L22 22L23 22L23 21ZM8 23L8 25L9 25L9 23ZM17 23L17 24L18 24L18 23ZM0 0L0 7L7 7L7 0ZM1 1L1 6L6 6L6 1ZM2 2L2 5L5 5L5 2ZM18 0L18 7L25 7L25 0ZM19 1L19 6L24 6L24 1ZM20 2L20 5L23 5L23 2ZM0 18L0 25L7 25L7 18ZM1 19L1 24L6 24L6 19ZM2 20L2 23L5 23L5 20Z" fill="#000000"/></g></g></svg>
