<?xml version="1.0" encoding="UTF-8"?>
<svg xmlns="http://www.w3.org/2000/svg" version="1.1" width="100" height="100" viewBox="0 0 100 100"><rect x="0" y="0" width="100" height="100" fill="#ffffff"/><g transform="scale(2.439)"><g transform="translate(0,0)"><path fill-rule="evenodd" d="M8 0L8 4L9 4L9 5L8 5L8 7L9 7L9 6L10 6L10 11L8 11L8 12L9 12L9 13L7 13L7 12L6 12L6 11L7 11L7 10L6 10L6 9L7 9L7 8L4 8L4 10L6 10L6 11L5 11L5 12L3 12L3 9L2 9L2 8L0 8L0 9L1 9L1 11L2 11L2 12L3 12L3 13L1 13L1 12L0 12L0 14L1 14L1 15L0 15L0 17L1 17L1 19L0 19L0 20L1 20L1 22L0 22L0 24L1 24L1 25L2 25L2 27L3 27L3 29L5 29L5 30L4 30L4 31L5 31L5 32L3 32L3 31L2 31L2 32L0 32L0 33L2 33L2 32L3 32L3 33L7 33L7 32L6 32L6 31L10 31L10 33L9 33L9 32L8 32L8 34L11 34L11 35L10 35L10 36L9 36L9 35L8 35L8 37L9 37L9 39L8 39L8 41L10 41L10 40L11 40L11 41L12 41L12 40L13 40L13 39L14 39L14 37L16 37L16 39L17 39L17 41L19 41L19 40L21 40L21 41L22 41L22 39L20 39L20 37L21 37L21 36L22 36L22 35L23 35L23 36L25 36L25 35L24 35L24 33L25 33L25 32L24 32L24 33L22 33L22 31L24 31L24 29L25 29L25 30L26 30L26 32L29 32L29 37L25 37L25 38L24 38L24 37L22 37L22 38L23 38L23 40L24 40L24 39L26 39L26 40L27 40L27 41L30 41L30 40L31 40L31 41L36 41L36 40L37 40L37 41L38 41L38 40L37 40L37 39L36 39L36 38L35 38L35 39L34 39L34 37L38 37L38 39L39 39L39 41L40 41L40 40L41 40L41 36L39 36L39 37L38 37L38 36L37 36L37 34L38 34L38 35L41 35L41 21L36 21L36 20L35 20L35 18L39 18L39 19L40 19L40 20L41 20L41 17L40 17L40 16L41 16L41 8L37 8L37 9L36 9L36 8L35 8L35 9L34 9L34 12L33 12L33 10L32 10L32 11L31 11L31 10L29 10L29 9L30 9L30 8L31 8L31 6L32 6L32 8L33 8L33 6L32 6L32 5L31 5L31 6L30 6L30 7L29 7L29 3L30 3L30 4L31 4L31 3L33 3L33 1L31 1L31 0L29 0L29 1L28 1L28 0L23 0L23 1L22 1L22 0L21 0L21 1L22 1L22 2L20 2L20 1L19 1L19 0L18 0L18 2L17 2L17 1L16 1L16 0L13 0L13 2L14 2L14 3L15 3L15 1L16 1L16 5L15 5L15 6L14 6L14 5L13 5L13 3L11 3L11 2L12 2L12 0L11 0L11 2L10 2L10 1L9 1L9 0ZM23 1L23 3L24 3L24 5L23 5L23 4L22 4L22 3L20 3L20 2L19 2L19 3L18 3L18 6L17 6L17 5L16 5L16 6L15 6L15 8L14 8L14 6L13 6L13 5L12 5L12 4L11 4L11 3L10 3L10 2L9 2L9 3L10 3L10 5L11 5L11 7L12 7L12 9L11 9L11 10L12 10L12 9L13 9L13 10L14 10L14 9L15 9L15 8L16 8L16 9L17 9L17 7L18 7L18 9L19 9L19 11L18 11L18 10L17 10L17 11L14 11L14 13L15 13L15 14L13 14L13 15L12 15L12 16L11 16L11 15L10 15L10 14L8 14L8 15L6 15L6 14L7 14L7 13L4 13L4 14L5 14L5 15L6 15L6 16L5 16L5 17L4 17L4 18L5 18L5 19L3 19L3 18L2 18L2 19L1 19L1 20L2 20L2 22L3 22L3 24L2 24L2 23L1 23L1 24L2 24L2 25L3 25L3 27L4 27L4 28L8 28L8 29L6 29L6 30L8 30L8 29L9 29L9 28L10 28L10 29L11 29L11 30L10 30L10 31L11 31L11 30L12 30L12 29L13 29L13 30L14 30L14 29L15 29L15 30L16 30L16 31L17 31L17 30L18 30L18 31L19 31L19 32L18 32L18 33L17 33L17 32L14 32L14 31L12 31L12 32L11 32L11 33L12 33L12 35L13 35L13 36L14 36L14 35L15 35L15 33L17 33L17 34L16 34L16 37L17 37L17 39L18 39L18 40L19 40L19 37L20 37L20 36L21 36L21 35L20 35L20 33L21 33L21 34L22 34L22 33L21 33L21 31L20 31L20 30L18 30L18 29L19 29L19 28L20 28L20 29L22 29L22 30L23 30L23 29L22 29L22 27L23 27L23 26L20 26L20 24L19 24L19 21L20 21L20 23L21 23L21 22L22 22L22 23L23 23L23 20L24 20L24 22L25 22L25 23L24 23L24 24L22 24L22 25L24 25L24 26L25 26L25 27L24 27L24 28L25 28L25 29L27 29L27 28L28 28L28 31L29 31L29 27L30 27L30 26L29 26L29 27L27 27L27 28L26 28L26 25L27 25L27 24L26 24L26 22L25 22L25 21L26 21L26 19L25 19L25 20L24 20L24 19L23 19L23 20L21 20L21 21L20 21L20 20L19 20L19 21L18 21L18 20L16 20L16 21L14 21L14 23L13 23L13 21L12 21L12 20L11 20L11 18L9 18L9 17L12 17L12 19L13 19L13 20L14 20L14 19L15 19L15 18L13 18L13 17L17 17L17 18L16 18L16 19L17 19L17 18L18 18L18 19L20 19L20 18L21 18L21 17L19 17L19 16L21 16L21 15L20 15L20 14L19 14L19 16L18 16L18 17L17 17L17 16L14 16L14 15L15 15L15 14L16 14L16 15L17 15L17 14L18 14L18 13L19 13L19 11L20 11L20 10L21 10L21 9L20 9L20 8L19 8L19 7L20 7L20 5L21 5L21 4L22 4L22 5L23 5L23 7L22 7L22 6L21 6L21 7L22 7L22 9L24 9L24 11L23 11L23 10L22 10L22 13L21 13L21 12L20 12L20 13L21 13L21 14L22 14L22 15L23 15L23 16L22 16L22 17L24 17L24 18L27 18L27 16L26 16L26 15L27 15L27 14L25 14L25 13L27 13L27 12L28 12L28 13L29 13L29 15L30 15L30 17L29 17L29 16L28 16L28 17L29 17L29 18L28 18L28 19L27 19L27 21L29 21L29 22L28 22L28 25L29 25L29 23L30 23L30 25L31 25L31 27L32 27L32 28L34 28L34 29L39 29L39 30L38 30L38 32L37 32L37 30L35 30L35 32L37 32L37 33L38 33L38 34L40 34L40 33L39 33L39 31L40 31L40 29L39 29L39 28L40 28L40 24L39 24L39 23L40 23L40 22L39 22L39 23L38 23L38 22L37 22L37 23L36 23L36 21L35 21L35 20L34 20L34 19L32 19L32 18L33 18L33 17L31 17L31 16L32 16L32 12L31 12L31 11L30 11L30 13L29 13L29 10L28 10L28 11L27 11L27 9L29 9L29 7L28 7L28 5L26 5L26 4L25 4L25 3L26 3L26 1ZM27 1L27 2L28 2L28 3L27 3L27 4L28 4L28 3L29 3L29 2L28 2L28 1ZM30 1L30 2L31 2L31 1ZM19 4L19 5L20 5L20 4ZM12 6L12 7L13 7L13 6ZM16 6L16 7L17 7L17 6ZM18 6L18 7L19 7L19 6ZM24 6L24 7L23 7L23 8L25 8L25 6ZM26 6L26 8L28 8L28 7L27 7L27 6ZM8 9L8 10L9 10L9 9ZM35 9L35 11L36 11L36 12L34 12L34 13L33 13L33 15L34 15L34 17L35 17L35 15L36 15L36 17L39 17L39 18L40 18L40 17L39 17L39 15L40 15L40 14L38 14L38 13L39 13L39 12L40 12L40 10L38 10L38 9L37 9L37 11L36 11L36 9ZM11 11L11 12L10 12L10 13L11 13L11 14L12 14L12 13L13 13L13 12L12 12L12 11ZM24 11L24 12L23 12L23 13L22 13L22 14L23 14L23 15L24 15L24 17L25 17L25 15L24 15L24 13L25 13L25 11ZM37 11L37 12L38 12L38 11ZM15 12L15 13L17 13L17 12ZM34 13L34 14L35 14L35 13ZM36 13L36 15L37 15L37 16L38 16L38 15L37 15L37 13ZM2 14L2 15L1 15L1 17L2 17L2 15L3 15L3 14ZM8 15L8 16L6 16L6 17L5 17L5 18L6 18L6 19L5 19L5 20L4 20L4 22L5 22L5 21L7 21L7 22L6 22L6 23L8 23L8 24L6 24L6 25L5 25L5 26L4 26L4 27L5 27L5 26L6 26L6 27L7 27L7 26L6 26L6 25L8 25L8 27L9 27L9 25L10 25L10 28L12 28L12 27L13 27L13 29L14 29L14 27L15 27L15 29L17 29L17 28L16 28L16 27L17 27L17 26L18 26L18 27L19 27L19 25L18 25L18 23L17 23L17 21L16 21L16 23L17 23L17 25L16 25L16 24L15 24L15 23L14 23L14 24L15 24L15 25L14 25L14 26L12 26L12 25L13 25L13 23L12 23L12 24L11 24L11 23L8 23L8 22L9 22L9 21L7 21L7 20L10 20L10 21L11 21L11 20L10 20L10 19L8 19L8 17L9 17L9 16L10 16L10 15ZM12 16L12 17L13 17L13 16ZM6 17L6 18L7 18L7 17ZM30 17L30 18L31 18L31 17ZM6 19L6 20L7 20L7 19ZM28 19L28 20L29 20L29 21L30 21L30 23L31 23L31 21L30 21L30 19ZM31 19L31 20L32 20L32 21L33 21L33 23L32 23L32 24L31 24L31 25L33 25L33 26L32 26L32 27L34 27L34 28L35 28L35 27L34 27L34 26L36 26L36 28L37 28L37 27L39 27L39 25L38 25L38 23L37 23L37 25L34 25L34 24L33 24L33 23L35 23L35 24L36 24L36 23L35 23L35 21L33 21L33 20L32 20L32 19ZM37 19L37 20L38 20L38 19ZM4 23L4 24L3 24L3 25L4 25L4 24L5 24L5 23ZM24 24L24 25L25 25L25 24ZM0 26L0 27L1 27L1 26ZM20 27L20 28L21 28L21 27ZM1 28L1 29L0 29L0 30L1 30L1 29L2 29L2 28ZM31 29L31 31L30 31L30 33L32 33L32 30L33 30L33 31L34 31L34 30L33 30L33 29ZM12 32L12 33L13 33L13 34L14 34L14 33L13 33L13 32ZM19 32L19 33L20 33L20 32ZM27 33L27 34L26 34L26 35L28 35L28 33ZM33 33L33 36L36 36L36 33ZM17 34L17 36L18 36L18 37L19 37L19 35L18 35L18 34ZM34 34L34 35L35 35L35 34ZM10 36L10 37L11 37L11 40L12 40L12 39L13 39L13 37L12 37L12 36ZM30 36L30 38L28 38L28 39L30 39L30 38L31 38L31 40L32 40L32 39L33 39L33 38L32 38L32 37L31 37L31 36ZM39 37L39 39L40 39L40 37ZM26 38L26 39L27 39L27 38ZM9 39L9 40L10 40L10 39ZM35 39L35 40L36 40L36 39ZM15 40L15 41L16 41L16 40ZM0 0L0 7L7 7L7 0ZM1 1L1 6L6 6L6 1ZM2 2L2 5L5 5L5 2ZM34 0L34 7L41 7L41 0ZM35 1L35 6L40 6L40 1ZM36 2L36 5L39 5L39 2ZM0 34L0 41L7 41L7 34ZM1 35L1 40L6 40L6 35ZM2 36L2 39L5 39L5 36Z" fill="#000000"/></g></g></svg>
