<?xml version="1.0" encoding="UTF-8"?>
<svg xmlns="http://www.w3.org/2000/svg" version="1.1" width="100" height="100" viewBox="0 0 100 100"><rect x="0" y="0" width="100" height="100" fill="#ffffff"/><g transform="scale(4)"><g transform="translate(0,0)"><path fill-rule="evenodd" d="M8 0L8 1L10 1L10 0ZM14 0L14 1L13 1L13 2L11 2L11 4L10 4L10 3L9 3L9 2L8 2L8 5L9 5L9 6L8 6L8 7L9 7L9 8L8 8L8 10L6 10L6 9L7 9L7 8L6 8L6 9L5 9L5 10L4 10L4 11L1 11L1 15L0 15L0 16L1 16L1 15L3 15L3 16L2 16L2 17L3 17L3 16L5 16L5 17L7 17L7 16L5 16L5 15L3 15L3 13L2 13L2 12L4 12L4 13L5 13L5 12L4 12L4 11L5 11L5 10L6 10L6 11L7 11L7 12L6 12L6 13L7 13L7 14L6 14L6 15L7 15L7 14L8 14L8 13L10 13L10 14L9 14L9 15L10 15L10 16L9 16L9 17L8 17L8 18L9 18L9 17L10 17L10 19L9 19L9 20L10 20L10 21L12 21L12 22L11 22L11 25L14 25L14 24L16 24L16 22L17 22L17 24L18 24L18 25L25 25L25 24L23 24L23 23L24 23L24 22L25 22L25 20L24 20L24 19L25 19L25 15L24 15L24 14L25 14L25 12L23 12L23 11L21 11L21 10L20 10L20 9L23 9L23 10L24 10L24 9L25 9L25 8L24 8L24 9L23 9L23 8L20 8L20 9L19 9L19 10L20 10L20 11L21 11L21 12L18 12L18 10L17 10L17 9L18 9L18 8L17 8L17 4L16 4L16 3L17 3L17 0L16 0L16 2L15 2L15 0ZM12 3L12 5L10 5L10 6L9 6L9 7L10 7L10 8L9 8L9 9L10 9L10 10L8 10L8 11L9 11L9 12L10 12L10 13L11 13L11 11L13 11L13 9L14 9L14 12L15 12L15 13L17 13L17 10L16 10L16 5L15 5L15 4L13 4L13 3ZM12 5L12 7L11 7L11 6L10 6L10 7L11 7L11 8L12 8L12 7L13 7L13 5ZM14 6L14 7L15 7L15 6ZM0 8L0 10L1 10L1 9L2 9L2 10L3 10L3 9L4 9L4 8ZM15 11L15 12L16 12L16 11ZM7 12L7 13L8 13L8 12ZM12 12L12 14L11 14L11 16L12 16L12 17L11 17L11 18L12 18L12 17L13 17L13 18L15 18L15 19L13 19L13 20L12 20L12 19L11 19L11 20L12 20L12 21L14 21L14 22L13 22L13 23L15 23L15 22L16 22L16 20L15 20L15 19L16 19L16 17L15 17L15 16L14 16L14 15L16 15L16 16L17 16L17 15L18 15L18 14L14 14L14 13L13 13L13 12ZM21 12L21 16L24 16L24 15L22 15L22 14L24 14L24 13L22 13L22 12ZM12 14L12 16L13 16L13 17L14 17L14 16L13 16L13 14ZM19 14L19 15L20 15L20 14ZM17 17L17 20L20 20L20 17ZM21 17L21 20L22 20L22 21L24 21L24 20L23 20L23 19L22 19L22 17ZM23 17L23 18L24 18L24 17ZM18 18L18 19L19 19L19 18ZM14 20L14 21L15 21L15 20ZM8 21L8 25L9 25L9 21ZM19 21L19 24L20 24L20 21ZM21 22L21 24L22 24L22 22ZM0 0L0 7L7 7L7 0ZM1 1L1 6L6 6L6 1ZM2 2L2 5L5 5L5 2ZM18 0L18 7L25 7L25 0ZM19 1L19 6L24 6L24 1ZM20 2L20 5L23 5L23 2ZM0 18L0 25L7 25L7 18ZM1 19L1 24L6 24L6 19ZM2 20L2 23L5 23L5 20Z" fill="#000000"/></g></g></svg>
