<?xml version="1.0" encoding="UTF-8"?>
<svg xmlns="http://www.w3.org/2000/svg" version="1.1" width="100" height="100" viewBox="0 0 100 100"><rect x="0" y="0" width="100" height="100" fill="#ffffff"/><g transform="scale(4)"><g transform="translate(0,0)"><path fill-rule="evenodd" d="M8 0L8 4L9 4L9 5L8 5L8 7L9 7L9 6L10 6L10 9L11 9L11 8L12 8L12 9L13 9L13 11L12 11L12 12L11 12L11 13L10 13L10 14L11 14L11 16L9 16L9 15L7 15L7 14L9 14L9 13L7 13L7 12L10 12L10 11L11 11L11 10L9 10L9 9L8 9L8 10L6 10L6 9L7 9L7 8L4 8L4 9L3 9L3 14L2 14L2 13L0 13L0 14L2 14L2 16L0 16L0 17L2 17L2 16L3 16L3 17L4 17L4 15L5 15L5 17L7 17L7 16L9 16L9 17L8 17L8 18L9 18L9 19L8 19L8 21L9 21L9 23L8 23L8 25L9 25L9 23L10 23L10 21L12 21L12 22L11 22L11 24L12 24L12 25L14 25L14 23L15 23L15 25L16 25L16 23L18 23L18 24L22 24L22 25L25 25L25 24L24 24L24 22L25 22L25 19L21 19L21 17L23 17L23 16L24 16L24 15L23 15L23 14L24 14L24 13L25 13L25 12L24 12L24 11L23 11L23 10L24 10L24 9L25 9L25 8L21 8L21 9L20 9L20 8L19 8L19 9L20 9L20 10L19 10L19 11L18 11L18 12L17 12L17 13L16 13L16 12L15 12L15 11L16 11L16 10L18 10L18 9L13 9L13 8L12 8L12 7L13 7L13 6L12 6L12 7L11 7L11 3L10 3L10 2L9 2L9 0ZM13 0L13 1L11 1L11 2L12 2L12 5L13 5L13 4L14 4L14 5L16 5L16 7L17 7L17 3L16 3L16 2L14 2L14 1L17 1L17 0ZM13 2L13 3L14 3L14 4L16 4L16 3L14 3L14 2ZM14 6L14 7L15 7L15 6ZM0 8L0 10L1 10L1 9L2 9L2 8ZM22 9L22 10L23 10L23 9ZM4 10L4 12L5 12L5 13L4 13L4 14L3 14L3 15L4 15L4 14L5 14L5 13L6 13L6 14L7 14L7 13L6 13L6 12L7 12L7 11L6 11L6 10ZM14 10L14 11L13 11L13 12L12 12L12 13L11 13L11 14L12 14L12 13L13 13L13 14L14 14L14 13L15 13L15 12L14 12L14 11L15 11L15 10ZM1 11L1 12L2 12L2 11ZM5 11L5 12L6 12L6 11ZM20 11L20 12L19 12L19 13L18 13L18 14L16 14L16 15L15 15L15 16L14 16L14 15L12 15L12 16L11 16L11 18L10 18L10 17L9 17L9 18L10 18L10 19L9 19L9 21L10 21L10 19L11 19L11 20L12 20L12 21L13 21L13 22L14 22L14 21L13 21L13 20L14 20L14 17L15 17L15 21L16 21L16 17L15 17L15 16L18 16L18 15L19 15L19 14L20 14L20 13L21 13L21 14L23 14L23 13L21 13L21 12L22 12L22 11ZM6 15L6 16L7 16L7 15ZM21 15L21 16L22 16L22 15ZM12 16L12 17L13 17L13 16ZM17 17L17 20L20 20L20 17ZM18 18L18 19L19 19L19 18ZM12 19L12 20L13 20L13 19ZM17 21L17 22L18 22L18 21ZM20 21L20 22L19 22L19 23L21 23L21 22L22 22L22 23L23 23L23 22L22 22L22 21ZM15 22L15 23L16 23L16 22ZM12 23L12 24L13 24L13 23ZM0 0L0 7L7 7L7 0ZM1 1L1 6L6 6L6 1ZM2 2L2 5L5 5L5 2ZM18 0L18 7L25 7L25 0ZM19 1L19 6L24 6L24 1ZM20 2L20 5L23 5L23 2ZM0 18L0 25L7 25L7 18ZM1 19L1 24L6 24L6 19ZM2 20L2 23L5 23L5 20Z" fill="#000000"/></g></g></svg>
