<?xml version="1.0" encoding="UTF-8"?>
<svg xmlns="http://www.w3.org/2000/svg" version="1.1" width="500" height="500" viewBox="0 0 500 500"><rect x="0" y="0" width="500" height="500" fill="#ffffff"/><g transform="scale(20)"><g transform="translate(0,0)"><path fill-rule="evenodd" d="M8 0L8 2L9 2L9 3L10 3L10 4L8 4L8 10L6 10L6 11L8 11L8 12L6 12L6 13L9 13L9 14L5 14L5 13L4 13L4 14L5 14L5 15L2 15L2 14L3 14L3 13L2 13L2 12L3 12L3 10L4 10L4 12L5 12L5 10L4 10L4 9L3 9L3 8L0 8L0 9L1 9L1 10L2 10L2 11L1 11L1 13L2 13L2 14L0 14L0 15L2 15L2 16L0 16L0 17L5 17L5 16L6 16L6 17L8 17L8 18L9 18L9 19L8 19L8 20L11 20L11 21L10 21L10 23L12 23L12 24L9 24L9 22L8 22L8 25L13 25L13 23L15 23L15 21L16 21L16 22L17 22L17 21L19 21L19 24L17 24L17 23L16 23L16 24L15 24L15 25L19 25L19 24L21 24L21 25L22 25L22 24L21 24L21 22L23 22L23 23L25 23L25 20L23 20L23 21L22 21L22 20L21 20L21 19L22 19L22 18L23 18L23 17L24 17L24 19L25 19L25 17L24 17L24 16L23 16L23 17L22 17L22 18L21 18L21 16L19 16L19 15L18 15L18 16L14 16L14 17L13 17L13 15L17 15L17 14L16 14L16 13L18 13L18 14L19 14L19 11L20 11L20 10L19 10L19 9L21 9L21 12L22 12L22 11L23 11L23 10L24 10L24 11L25 11L25 8L23 8L23 10L22 10L22 9L21 9L21 8L17 8L17 10L16 10L16 8L14 8L14 10L13 10L13 9L12 9L12 8L13 8L13 6L12 6L12 8L11 8L11 9L10 9L10 8L9 8L9 5L10 5L10 7L11 7L11 5L12 5L12 4L11 4L11 1L12 1L12 0L11 0L11 1L10 1L10 0ZM16 0L16 1L17 1L17 0ZM12 2L12 3L13 3L13 5L14 5L14 3L15 3L15 4L16 4L16 7L17 7L17 2L16 2L16 3L15 3L15 2ZM10 4L10 5L11 5L11 4ZM14 6L14 7L15 7L15 6ZM5 8L5 9L7 9L7 8ZM9 9L9 10L10 10L10 11L9 11L9 12L10 12L10 11L11 11L11 10L12 10L12 11L13 11L13 14L12 14L12 15L13 15L13 14L14 14L14 12L15 12L15 13L16 13L16 12L15 12L15 11L13 11L13 10L12 10L12 9L11 9L11 10L10 10L10 9ZM17 10L17 11L18 11L18 10ZM11 12L11 13L10 13L10 14L11 14L11 13L12 13L12 12ZM24 12L24 13L23 13L23 14L20 14L20 15L23 15L23 14L24 14L24 15L25 15L25 12ZM6 15L6 16L8 16L8 17L9 17L9 16L11 16L11 17L10 17L10 18L11 18L11 17L12 17L12 18L13 18L13 20L14 20L14 21L13 21L13 22L14 22L14 21L15 21L15 20L16 20L16 18L15 18L15 17L14 17L14 18L13 18L13 17L12 17L12 16L11 16L11 15ZM17 17L17 20L20 20L20 17ZM18 18L18 19L19 19L19 18ZM14 19L14 20L15 20L15 19ZM23 21L23 22L24 22L24 21ZM24 24L24 25L25 25L25 24ZM0 0L0 7L7 7L7 0ZM1 1L1 6L6 6L6 1ZM2 2L2 5L5 5L5 2ZM18 0L18 7L25 7L25 0ZM19 1L19 6L24 6L24 1ZM20 2L20 5L23 5L23 2ZM0 18L0 25L7 25L7 18ZM1 19L1 24L6 24L6 19ZM2 20L2 23L5 23L5 20Z" fill="#000000"/></g></g></svg>
