<?xml version="1.0" encoding="UTF-8"?>
<svg xmlns="http://www.w3.org/2000/svg" version="1.1" width="100" height="100" viewBox="0 0 100 100"><rect x="0" y="0" width="100" height="100" fill="#ffffff"/><g transform="scale(4)"><g transform="translate(0,0)"><path fill-rule="evenodd" d="M8 0L8 1L11 1L11 3L10 3L10 2L9 2L9 3L10 3L10 5L9 5L9 6L8 6L8 8L9 8L9 9L8 9L8 10L6 10L6 9L7 9L7 8L6 8L6 9L5 9L5 8L3 8L3 9L2 9L2 8L0 8L0 10L1 10L1 11L0 11L0 17L1 17L1 15L2 15L2 17L3 17L3 16L4 16L4 17L8 17L8 18L9 18L9 20L8 20L8 22L9 22L9 23L8 23L8 25L10 25L10 23L11 23L11 25L14 25L14 22L16 22L16 21L18 21L18 22L17 22L17 23L18 23L18 22L19 22L19 21L21 21L21 16L22 16L22 18L24 18L24 19L25 19L25 18L24 18L24 16L25 16L25 14L24 14L24 13L25 13L25 10L24 10L24 9L25 9L25 8L24 8L24 9L19 9L19 8L18 8L18 9L17 9L17 6L16 6L16 7L15 7L15 4L16 4L16 5L17 5L17 3L16 3L16 2L14 2L14 1L15 1L15 0L13 0L13 1L12 1L12 0ZM12 2L12 4L13 4L13 2ZM10 5L10 6L9 6L9 7L10 7L10 9L9 9L9 10L8 10L8 11L6 11L6 10L5 10L5 11L4 11L4 12L3 12L3 11L2 11L2 12L1 12L1 13L2 13L2 12L3 12L3 14L2 14L2 15L4 15L4 16L5 16L5 14L7 14L7 13L8 13L8 12L11 12L11 14L9 14L9 17L10 17L10 20L9 20L9 22L10 22L10 20L11 20L11 19L12 19L12 21L11 21L11 22L12 22L12 23L13 23L13 22L12 22L12 21L13 21L13 19L14 19L14 21L15 21L15 19L16 19L16 16L17 16L17 14L16 14L16 16L15 16L15 13L16 13L16 12L17 12L17 13L18 13L18 14L19 14L19 15L18 15L18 16L19 16L19 15L20 15L20 16L21 16L21 15L20 15L20 13L21 13L21 14L23 14L23 13L24 13L24 12L21 12L21 10L20 10L20 12L19 12L19 11L18 11L18 10L19 10L19 9L18 9L18 10L17 10L17 9L16 9L16 10L17 10L17 11L16 11L16 12L14 12L14 11L15 11L15 10L14 10L14 8L13 8L13 9L12 9L12 6L13 6L13 7L14 7L14 6L13 6L13 5L12 5L12 6L11 6L11 5ZM10 6L10 7L11 7L11 6ZM3 9L3 10L4 10L4 9ZM10 9L10 10L9 10L9 11L10 11L10 10L11 10L11 9ZM12 10L12 11L13 11L13 10ZM22 10L22 11L24 11L24 10ZM6 12L6 13L7 13L7 12ZM18 12L18 13L19 13L19 12ZM4 13L4 14L5 14L5 13ZM12 13L12 14L14 14L14 13ZM6 15L6 16L7 16L7 15ZM10 15L10 16L11 16L11 18L12 18L12 19L13 19L13 18L14 18L14 17L15 17L15 16L13 16L13 15L12 15L12 16L11 16L11 15ZM23 15L23 16L24 16L24 15ZM12 17L12 18L13 18L13 17ZM17 17L17 20L20 20L20 17ZM18 18L18 19L19 19L19 18ZM23 20L23 22L20 22L20 23L19 23L19 24L21 24L21 25L22 25L22 24L24 24L24 25L25 25L25 20ZM21 23L21 24L22 24L22 23ZM16 24L16 25L18 25L18 24ZM0 0L0 7L7 7L7 0ZM1 1L1 6L6 6L6 1ZM2 2L2 5L5 5L5 2ZM18 0L18 7L25 7L25 0ZM19 1L19 6L24 6L24 1ZM20 2L20 5L23 5L23 2ZM0 18L0 25L7 25L7 18ZM1 19L1 24L6 24L6 19ZM2 20L2 23L5 23L5 20Z" fill="#000000"/></g></g></svg>
